<svg xmlns="http://www.w3.org/2000/svg" xmlns:xlink="http://www.w3.org/1999/xlink" width="500" zoomAndPan="magnify" viewBox="0 0 375 374.999991" height="500" preserveAspectRatio="xMidYMid meet" version="1.0"><defs><clipPath id="67975f129b"><path d="M 50.703125 49.585938 L 142.894531 49.585938 L 142.894531 141.773438 L 50.703125 141.773438 Z M 50.703125 49.585938 " clip-rule="nonzero"/></clipPath><clipPath id="aa37dd3f68"><path d="M 232.855469 50.324219 L 325.046875 50.324219 L 325.046875 142.511719 L 232.855469 142.511719 Z M 232.855469 50.324219 " clip-rule="nonzero"/></clipPath><clipPath id="a5621c1d07"><path d="M 141.347656 49.582031 L 232.847656 49.582031 L 232.847656 225.082031 L 141.347656 225.082031 Z M 141.347656 49.582031 " clip-rule="nonzero"/></clipPath><clipPath id="ea7d781a5c"><path d="M 141.40625 141.773438 L 232.90625 141.773438 L 232.90625 233.273438 L 141.40625 233.273438 Z M 141.40625 141.773438 " clip-rule="nonzero"/></clipPath><clipPath id="f511e34971"><path d="M 141.40625 232.476562 L 232.855469 232.476562 L 232.855469 324.664062 L 141.40625 324.664062 Z M 141.40625 232.476562 " clip-rule="nonzero"/></clipPath></defs><g clip-path="url(#67975f129b)"><path fill="#c1ff72" d="M 50.703125 49.585938 L 142.894531 49.585938 L 142.894531 141.773438 L 50.703125 141.773438 Z M 50.703125 49.585938 " fill-opacity="1" fill-rule="nonzero"/></g><g clip-path="url(#aa37dd3f68)"><path fill="#5271ff" d="M 232.855469 50.324219 L 325.046875 50.324219 L 325.046875 142.511719 L 232.855469 142.511719 Z M 232.855469 50.324219 " fill-opacity="1" fill-rule="nonzero"/></g><g clip-path="url(#a5621c1d07)"><path fill="#ffde59" d="M 141.394531 221.433594 L 141.394531 53.191406 C 141.386719 52.699219 141.476562 52.226562 141.664062 51.769531 C 141.847656 51.316406 142.113281 50.914062 142.460938 50.566406 C 142.808594 50.21875 143.210938 49.953125 143.664062 49.765625 C 144.117188 49.578125 144.59375 49.488281 145.082031 49.492188 C 146.519531 49.492188 147.957031 49.527344 149.390625 49.597656 C 150.824219 49.671875 152.257812 49.777344 153.6875 49.917969 C 155.117188 50.058594 156.542969 50.234375 157.964844 50.445312 C 159.386719 50.65625 160.800781 50.902344 162.210938 51.183594 C 163.617188 51.464844 165.019531 51.78125 166.414062 52.128906 C 167.808594 52.480469 169.191406 52.863281 170.566406 53.28125 C 171.941406 53.699219 173.304688 54.148438 174.65625 54.632812 C 176.011719 55.117188 177.351562 55.632812 178.679688 56.183594 C 180.003906 56.734375 181.316406 57.316406 182.617188 57.933594 C 183.914062 58.546875 185.199219 59.191406 186.464844 59.871094 C 187.730469 60.546875 188.980469 61.257812 190.214844 61.996094 C 191.445312 62.734375 192.660156 63.503906 193.855469 64.300781 C 195.046875 65.101562 196.222656 65.925781 197.375 66.785156 C 198.53125 67.640625 199.664062 68.523438 200.773438 69.433594 C 201.882812 70.347656 202.972656 71.285156 204.035156 72.25 C 205.101562 73.214844 206.140625 74.207031 207.15625 75.222656 C 208.171875 76.238281 209.160156 77.277344 210.125 78.34375 C 211.089844 79.40625 212.027344 80.496094 212.941406 81.605469 C 213.851562 82.71875 214.734375 83.851562 215.589844 85.003906 C 216.445312 86.160156 217.273438 87.332031 218.070312 88.527344 C 218.871094 89.722656 219.636719 90.9375 220.375 92.167969 C 221.113281 93.402344 221.824219 94.652344 222.5 95.917969 C 223.175781 97.183594 223.824219 98.46875 224.4375 99.765625 C 225.050781 101.066406 225.632812 102.378906 226.183594 103.707031 C 226.734375 105.035156 227.25 106.375 227.734375 107.726562 C 228.21875 109.078125 228.667969 110.445312 229.085938 111.820312 C 229.5 113.195312 229.882812 114.578125 230.234375 115.972656 C 230.582031 117.367188 230.898438 118.765625 231.175781 120.175781 C 231.457031 121.585938 231.703125 123 231.914062 124.421875 C 232.125 125.84375 232.300781 127.269531 232.441406 128.699219 C 232.582031 130.128906 232.6875 131.5625 232.757812 132.996094 C 232.828125 134.429688 232.863281 135.867188 232.863281 137.304688 C 232.863281 138.738281 232.828125 140.175781 232.757812 141.609375 C 232.6875 143.046875 232.582031 144.480469 232.441406 145.910156 C 232.300781 147.339844 232.125 148.765625 231.914062 150.183594 C 231.703125 151.605469 231.457031 153.023438 231.175781 154.429688 C 230.898438 155.839844 230.582031 157.242188 230.234375 158.636719 C 229.882812 160.027344 229.5 161.414062 229.085938 162.789062 C 228.667969 164.164062 228.21875 165.527344 227.734375 166.878906 C 227.25 168.234375 226.734375 169.574219 226.183594 170.898438 C 225.632812 172.226562 225.050781 173.539062 224.4375 174.839844 C 223.824219 176.140625 223.175781 177.421875 222.5 178.6875 C 221.824219 179.957031 221.113281 181.207031 220.375 182.4375 C 219.636719 183.671875 218.871094 184.882812 218.070312 186.078125 C 217.273438 187.273438 216.445312 188.449219 215.589844 189.601562 C 214.734375 190.757812 213.851562 191.890625 212.941406 193 C 212.027344 194.109375 211.089844 195.199219 210.125 196.261719 C 209.160156 197.328125 208.171875 198.367188 207.15625 199.382812 C 206.140625 200.402344 205.101562 201.390625 204.035156 202.355469 C 202.972656 203.320312 201.882812 204.261719 200.773438 205.171875 C 199.664062 206.082031 198.53125 206.96875 197.375 207.824219 C 196.222656 208.679688 195.046875 209.507812 193.855469 210.304688 C 192.660156 211.105469 191.445312 211.871094 190.214844 212.613281 C 188.980469 213.351562 187.730469 214.058594 186.464844 214.734375 C 185.199219 215.414062 183.914062 216.058594 182.617188 216.675781 C 181.316406 217.289062 180.003906 217.871094 178.679688 218.421875 C 177.351562 218.972656 176.011719 219.488281 174.65625 219.972656 C 173.304688 220.457031 171.941406 220.910156 170.566406 221.328125 C 169.191406 221.742188 167.808594 222.128906 166.414062 222.476562 C 165.019531 222.828125 163.617188 223.140625 162.210938 223.421875 C 160.800781 223.703125 159.386719 223.949219 157.964844 224.160156 C 156.542969 224.371094 155.117188 224.546875 153.6875 224.6875 C 152.257812 224.832031 150.824219 224.9375 149.390625 225.007812 C 147.957031 225.078125 146.519531 225.113281 145.082031 225.113281 C 144.59375 225.117188 144.121094 225.027344 143.667969 224.839844 C 143.214844 224.65625 142.816406 224.390625 142.46875 224.042969 C 142.125 223.699219 141.855469 223.296875 141.667969 222.84375 C 141.484375 222.394531 141.390625 221.921875 141.394531 221.433594 Z M 141.394531 221.433594 " fill-opacity="1" fill-rule="nonzero"/></g><g clip-path="url(#ea7d781a5c)"><path fill="#ff3131" d="M 232.84375 233.210938 L 141.40625 233.210938 L 141.40625 232.996094 C 141.40625 220.683594 143.816406 208.734375 148.574219 197.488281 C 150.859375 192.082031 153.691406 186.871094 156.984375 181.992188 C 160.25 177.164062 163.996094 172.621094 168.125 168.492188 C 172.253906 164.363281 176.792969 160.617188 181.625 157.355469 C 186.5 154.058594 191.714844 151.230469 197.121094 148.941406 C 208.367188 144.1875 220.3125 141.773438 232.628906 141.773438 L 232.84375 141.773438 Z M 232.84375 233.210938 " fill-opacity="1" fill-rule="nonzero"/></g><g clip-path="url(#f511e34971)"><path fill="#ff3131" d="M 141.40625 232.476562 L 232.855469 232.476562 L 232.855469 324.640625 L 141.40625 324.640625 Z M 141.40625 232.476562 " fill-opacity="1" fill-rule="nonzero"/></g></svg>