<svg xmlns="http://www.w3.org/2000/svg" xmlns:xlink="http://www.w3.org/1999/xlink" width="2000" zoomAndPan="magnify" viewBox="0 0 1500 525.000007" height="700" preserveAspectRatio="xMidYMid meet" version="1.0"><defs><g/></defs><g fill="#000000" fill-opacity="1"><g transform="translate(148.768656, 370.590793)"><g><path d="M 10.96875 -185.4375 L 10.96875 -224.578125 L 195.40625 -224.578125 L 195.40625 -185.4375 L 126.65625 -185.4375 L 126.65625 0 L 79.71875 0 L 79.71875 -185.4375 Z M 10.96875 -185.4375 "/></g></g></g><g fill="#000000" fill-opacity="1"><g transform="translate(345.878809, 370.590793)"><g><path d="M 18.640625 0 L 18.640625 -168.4375 L 63.9375 -168.4375 L 63.9375 -139.046875 L 65.6875 -139.046875 C 68.757812 -149.503906 73.894531 -157.414062 81.09375 -162.78125 C 88.289062 -168.15625 96.644531 -170.84375 106.15625 -170.84375 C 110.6875 -170.84375 114.890625 -170.296875 118.765625 -169.203125 C 122.640625 -168.109375 126.109375 -166.609375 129.171875 -164.703125 L 115.140625 -126.109375 C 112.941406 -127.203125 110.546875 -128.128906 107.953125 -128.890625 C 105.359375 -129.660156 102.453125 -130.046875 99.234375 -130.046875 C 89.804688 -130.046875 81.820312 -126.828125 75.28125 -120.390625 C 68.738281 -113.960938 65.429688 -105.597656 65.359375 -95.296875 L 65.359375 0 Z M 18.640625 0 "/></g></g></g><g fill="#000000" fill-opacity="1"><g transform="translate(468.970662, 370.590793)"><g><path d="M 66.671875 3.1875 C 50.585938 3.1875 37.242188 -1.015625 26.640625 -9.421875 C 16.046875 -17.835938 10.75 -30.378906 10.75 -47.046875 C 10.75 -59.617188 13.707031 -69.484375 19.625 -76.640625 C 25.550781 -83.804688 33.316406 -89.050781 42.921875 -92.375 C 52.535156 -95.707031 62.898438 -97.882812 74.015625 -98.90625 C 88.640625 -100.375 99.09375 -101.910156 105.375 -103.515625 C 111.664062 -105.117188 114.8125 -108.628906 114.8125 -114.046875 L 114.8125 -114.703125 C 114.8125 -121.648438 112.632812 -127.023438 108.28125 -130.828125 C 103.9375 -134.628906 97.78125 -136.53125 89.8125 -136.53125 C 81.40625 -136.53125 74.710938 -134.703125 69.734375 -131.046875 C 64.765625 -127.390625 61.476562 -122.742188 59.875 -117.109375 L 16.671875 -120.625 C 19.890625 -135.976562 27.875 -148.148438 40.625 -157.140625 C 53.382812 -166.128906 69.851562 -170.625 90.03125 -170.625 C 102.53125 -170.625 114.222656 -168.648438 125.109375 -164.703125 C 136.003906 -160.753906 144.796875 -154.59375 151.484375 -146.21875 C 158.179688 -137.851562 161.53125 -126.984375 161.53125 -113.609375 L 161.53125 0 L 117.21875 0 L 117.21875 -23.359375 L 115.90625 -23.359375 C 111.8125 -15.535156 105.6875 -9.15625 97.53125 -4.21875 C 89.382812 0.71875 79.097656 3.1875 66.671875 3.1875 Z M 80.046875 -29.0625 C 90.285156 -29.0625 98.691406 -32.039062 105.265625 -38 C 111.847656 -43.957031 115.140625 -51.359375 115.140625 -60.203125 L 115.140625 -78.078125 C 113.316406 -76.835938 110.484375 -75.738281 106.640625 -74.78125 C 102.804688 -73.832031 98.710938 -73.007812 94.359375 -72.3125 C 90.015625 -71.625 86.125 -71.023438 82.6875 -70.515625 C 74.5 -69.335938 67.898438 -67.03125 62.890625 -63.59375 C 57.878906 -60.164062 55.375 -55.160156 55.375 -48.578125 C 55.375 -42.140625 57.691406 -37.273438 62.328125 -33.984375 C 66.972656 -30.703125 72.878906 -29.0625 80.046875 -29.0625 Z M 80.046875 -29.0625 "/></g></g></g><g fill="#000000" fill-opacity="1"><g transform="translate(638.885939, 370.590793)"><g><path d="M 94.75 3.296875 C 77.488281 3.296875 62.660156 -0.375 50.265625 -7.71875 C 37.878906 -15.070312 28.378906 -25.289062 21.765625 -38.375 C 15.148438 -51.46875 11.84375 -66.53125 11.84375 -83.5625 C 11.84375 -100.8125 15.1875 -115.960938 21.875 -129.015625 C 28.5625 -142.066406 38.082031 -152.265625 50.4375 -159.609375 C 62.789062 -166.953125 77.488281 -170.625 94.53125 -170.625 C 109.21875 -170.625 122.097656 -167.957031 133.171875 -162.625 C 144.253906 -157.289062 152.992188 -149.796875 159.390625 -140.140625 C 165.785156 -130.492188 169.3125 -119.164062 169.96875 -106.15625 L 125.890625 -106.15625 C 124.640625 -114.5625 121.363281 -121.335938 116.0625 -126.484375 C 110.769531 -131.640625 103.847656 -134.21875 95.296875 -134.21875 C 84.472656 -134.21875 75.769531 -129.867188 69.1875 -121.171875 C 62.613281 -112.472656 59.328125 -100.15625 59.328125 -84.21875 C 59.328125 -68.132812 62.597656 -55.6875 69.140625 -46.875 C 75.679688 -38.070312 84.398438 -33.671875 95.296875 -33.671875 C 103.335938 -33.671875 110.097656 -36.097656 115.578125 -40.953125 C 121.054688 -45.816406 124.492188 -52.742188 125.890625 -61.734375 L 169.96875 -61.734375 C 169.238281 -48.867188 165.75 -37.535156 159.5 -27.734375 C 153.25 -17.941406 144.640625 -10.320312 133.671875 -4.875 C 122.703125 0.570312 109.726562 3.296875 94.75 3.296875 Z M 94.75 3.296875 "/></g></g></g><g fill="#000000" fill-opacity="1"><g transform="translate(810.994338, 370.590793)"><g><path d="M 18.640625 0 L 18.640625 -224.578125 L 65.359375 -224.578125 L 65.359375 -104.5 L 67.875 -104.5 L 121.828125 -168.4375 L 175.453125 -168.4375 L 112.953125 -95.515625 L 178.640625 0 L 123.90625 0 L 77.96875 -67.875 L 65.359375 -53.515625 L 65.359375 0 Z M 18.640625 0 "/></g></g></g><g fill="#000000" fill-opacity="1"><g transform="translate(981.34828, 370.590793)"><g><path d="M 18.640625 0 L 18.640625 -168.4375 L 65.359375 -168.4375 L 65.359375 0 Z M 42.109375 -190.140625 C 35.242188 -190.140625 29.320312 -192.460938 24.34375 -197.109375 C 19.375 -201.753906 16.890625 -207.328125 16.890625 -213.828125 C 16.890625 -220.335938 19.375 -225.894531 24.34375 -230.5 C 29.320312 -235.101562 35.242188 -237.40625 42.109375 -237.40625 C 49.054688 -237.40625 55.015625 -235.101562 59.984375 -230.5 C 64.960938 -225.894531 67.453125 -220.335938 67.453125 -213.828125 C 67.453125 -207.328125 64.960938 -201.753906 59.984375 -197.109375 C 55.015625 -192.460938 49.054688 -190.140625 42.109375 -190.140625 Z M 42.109375 -190.140625 "/></g></g></g><g fill="#000000" fill-opacity="1"><g transform="translate(1056.081548, 370.590793)"><g><path d="M 110.75 -168.4375 L 110.75 -133.34375 L 77.3125 -133.34375 L 77.3125 0 L 30.59375 0 L 30.59375 -133.34375 L 6.796875 -133.34375 L 6.796875 -168.4375 L 30.59375 -168.4375 L 30.59375 -180.609375 C 30.59375 -198.953125 35.835938 -212.617188 46.328125 -221.609375 C 56.816406 -230.609375 69.992188 -235.109375 85.859375 -235.109375 C 93.023438 -235.109375 99.585938 -234.554688 105.546875 -233.453125 C 111.503906 -232.359375 115.945312 -231.375 118.875 -230.5 L 110.640625 -195.40625 C 108.816406 -195.988281 106.550781 -196.535156 103.84375 -197.046875 C 101.132812 -197.566406 98.394531 -197.828125 95.625 -197.828125 C 88.75 -197.828125 83.976562 -196.234375 81.3125 -193.046875 C 78.644531 -189.867188 77.3125 -185.429688 77.3125 -179.734375 L 77.3125 -168.4375 Z M 110.75 -168.4375 "/></g></g></g><g fill="#000000" fill-opacity="1"><g transform="translate(1167.440125, 370.590793)"><g><path d="M 45.84375 65.578125 C 39.1875 65.578125 33.5 65.007812 28.78125 63.875 C 24.070312 62.738281 20.398438 61.585938 17.765625 60.421875 L 28.296875 24.234375 C 36.554688 26.722656 43.519531 27.378906 49.1875 26.203125 C 54.851562 25.035156 59.328125 20.613281 62.609375 12.9375 L 65.6875 4.828125 L 5.265625 -168.4375 L 54.390625 -168.4375 L 89.265625 -44.734375 L 91.015625 -44.734375 L 126.21875 -168.4375 L 175.671875 -168.4375 L 109.875 19.296875 C 105.125 32.753906 97.539062 43.832031 87.125 52.53125 C 76.707031 61.226562 62.945312 65.578125 45.84375 65.578125 Z M 45.84375 65.578125 "/></g></g></g><path stroke-linecap="round" transform="matrix(0.748574, 0, 0, 0.748574, 149.373056, 415.257633)" fill="none" stroke-linejoin="miter" d="M 19.497995 19.500855 L 414.52505 19.500855 " stroke="#ff3131" stroke-width="39" stroke-opacity="1" stroke-miterlimit="4"/><path stroke-linecap="round" transform="matrix(0.748574, 0, 0, 0.748574, 423.670781, 82.905225)" fill="none" stroke-linejoin="miter" d="M 19.502076 19.501986 L 612.467946 19.501986 " stroke="#c1ff72" stroke-width="39" stroke-opacity="1" stroke-miterlimit="4"/><path stroke-linecap="round" transform="matrix(0.748574, 0, 0, 0.748574, 670.534023, 416.78712)" fill="none" stroke-linejoin="miter" d="M 19.50213 19.497992 L 616.647821 19.497992 " stroke="#5271ff" stroke-width="39" stroke-opacity="1" stroke-miterlimit="4"/></svg>